<?xml version="1.0" encoding="UTF-8"?>
<svg width="32" height="32" viewBox="0 0 32 32" fill="none" xmlns="http://www.w3.org/2000/svg">
  <!-- Fundo do blob principal -->
  <path d="M16.5 4.5c2.5 0.5 4.5 2 5.5 3.5s2 4 1.5 6.5-2 4.5-3.5 5.5-4 2-6.5 1.5-4.5-2-5.5-3.5-2-4-1.5-6.5 2-4.5 3.5-5.5 4-2 6.5-1.5z" fill="#FFFFFF"/>
  
  <!-- Reflexo/brilho -->
  <path d="M19 8.5c1.5 0.5 2.5 1.5 3 2.5s1 2.5 0.5 4-1.5 2.5-2.5 3-2.5 1-4 0.5-2.5-1.5-3-2.5-1-2.5-0.5-4 1.5-2.5 2.5-3 2.5-1 4 0.5z" fill="#FFFFFF" fill-opacity="0.4"/>
  
  <!-- Efeito de brilho -->
  <circle cx="12" cy="10" r="1.5" fill="#FFFFFF" fill-opacity="0.6"/>
</svg>