<svg width="24" height="24" viewBox="0 0 24 24" fill="none" xmlns="http://www.w3.org/2000/svg">
<path d="M12.7714 10.9744C12.7714 10.5495 12.426 10.2051 12 10.2051C11.574 10.2051 11.2286 10.5495 11.2286 10.9744V17.1282C11.2286 17.553 11.574 17.8974 12 17.8974C12.426 17.8974 12.7714 17.553 12.7714 17.1282V10.9744Z" fill="#FF3E3C"/>
<path d="M15.5831 10.2071C16.0081 10.2374 16.3279 10.6056 16.2974 11.0293L15.8551 17.1832C15.8247 17.6069 15.4555 17.9258 15.0305 17.8954C14.6056 17.8651 14.2858 17.4969 14.3162 17.0732L14.7585 10.9193C14.789 10.4956 15.1582 10.1767 15.5831 10.2071Z" fill="#FF3E3C"/>
<path d="M9.24143 10.9193C9.21098 10.4956 8.84179 10.1767 8.41683 10.2071C7.99188 10.2374 7.67207 10.6056 7.70252 11.0293L8.14481 17.1832C8.17526 17.6069 8.54445 17.9258 8.96941 17.8954C9.39437 17.8651 9.71417 17.4969 9.68372 17.0732L9.24143 10.9193Z" fill="#FF3E3C"/>
<path fill-rule="evenodd" clip-rule="evenodd" d="M9.82562 2C8.64617 2 7.59111 2.7292 7.17683 3.83032L6.32252 6.10256H3.77143C3.34538 6.10256 3 6.44696 3 6.8718C3 7.29663 3.34538 7.64103 3.77143 7.64103H4.04847L4.91837 19.3875C5.02862 20.8603 6.25848 22 7.73966 22H16.2562C17.7401 22 18.9717 20.856 19.0777 19.3799L19.9183 7.64103H20.2286C20.6546 7.64103 21 7.29663 21 6.8718C21 6.44696 20.6546 6.10256 20.2286 6.10256H17.6775L16.8232 3.83032C16.4089 2.7292 15.3539 2 14.1744 2H9.82562ZM17.1251 7.64103C17.137 7.6413 17.1489 7.6413 17.1609 7.64103H18.3715L17.5388 19.2703C17.4904 19.9419 16.9302 20.4615 16.2562 20.4615H7.73966C7.06709 20.4615 6.50728 19.9437 6.45695 19.273L5.59553 7.64103H6.83916C6.85111 7.6413 6.86304 7.6413 6.87493 7.64103H17.1251ZM16.0298 6.10256L15.3787 4.37071C15.1902 3.86986 14.7106 3.53846 14.1744 3.53846H9.82562C9.28947 3.53846 8.80995 3.8697 8.62144 4.37055L7.97024 6.10256H16.0298Z" fill="#FF3E3C"/>
</svg>
